# AST/ASF file generated using VICON BodyLanguage
# -----------------------------------------------
:version 1.10
:name VICON
:units
  mass 1.0
  length 0.1
  angle deg
:documentation
   .ast/.asf automatically generated from VICON data using
   VICON BodyBuilder and BodyLanguage model FULLBODY5.MOD
:root
   order TX TY TZ RZ RY RX
   axis XYZ
   position 0 0 0  
   orientation 0 -0 0 
:bonedata
  begin
     id 1 
     name lhipjoint
     direction 0.961525 -0.229516 0.150972 
     length 0.502153 
     axis 0 -0 0  XYZ
  end
  begin
     id 2 
     name lfemur
     direction 0.173648 -0.984808 0  
     length 1.83052  
     axis 0 -0 10  XYZ
    dof rx ry rz
    limits (-180.0 180.0)
           (-180.0 180.0)
           (-180.0 180.0)
  end
  begin
     id 3 
     name ltibia
     direction 0.173629 -0.984811 0   
     length 1.50296   
     axis 0 -0 10   XYZ
    dof rx ry rz
    limits (-180.0 180.0)
           (-180.0 180.0)
           (-180.0 180.0)
  end
  begin
     id 4 
     name lfoot
     direction 7.59329e-012 -0.227408 0.9738   
     length 0.574743   
     axis -90 -1.73656e-015 10   XYZ
    dof rx ry rz
    limits (-180.0 180.0)
           (-180.0 180.0)
           (-180.0 180.0)
  end
  begin
     id 5 
     name ltoes
     direction 7.79885e-012 -4.41741e-011 1   
     length 0.28489   
     axis -90 -1.73656e-015 10   XYZ
    dof rx ry rz
    limits (-180.0 180.0)
           (-180.0 180.0)
           (-180.0 180.0)
  end
  begin
     id 6 
     name rhipjoint
     direction -0.970498 -0.201437 0.132502   
     length 0.572149  
     axis 0 -0 0  XYZ 
  end
  begin
     id 7 
     name rfemur
     direction -0.173648 -0.984808 0   
     length 1.71866   
     axis 0 -0 -10   XYZ
    dof rx ry rz
    limits (-180.0 180.0)
           (-180.0 180.0)
           (-180.0 180.0)
  end
  begin
     id 8 
     name rtibia
     direction -0.173624 -0.984812 0   
     length 1.42623   
     axis 0 -0 -10   XYZ
    dof rx ry rz
    limits (-180.0 180.0)
           (-180.0 180.0)
           (-180.0 180.0)
 end
 begin
     id 9 
     name rfoot
     direction -7.12931e-012 -0.404275 0.914637   
     length 0.524692  
     axis -90 1.73656e-015 -10   XYZ
    dof rx ry rz
    limits (-180.0 180.0)
           (-180.0 180.0)
           (-180.0 180.0)
  end
  begin
     id 10 
     name rtoes
     direction -7.79289e-012 -4.41454e-011 1   
     length 0.254983   
     axis -90 1.73656e-015 -10   XYZ
    dof rx ry rz
    limits (-180.0 180.0)
           (-180.0 180.0)
           (-180.0 180.0)
  end
  begin
     id 11 
     name lowerback
     direction -0.0214086 0.993738 0.109665   
     length 0.417614   
     axis 0 -0 0   XYZ
    dof rx ry rz
    limits (-180.0 180.0)
           (-180.0 180.0)
           (-180.0 180.0)
  end
  begin
     id 12 
     name upperback
     direction 8.15962e-005 0.99996 0.00893412   
     length 0.419234   
     axis 0 -0 0   XYZ
    dof rx ry rz
    limits (-180.0 180.0)
           (-180.0 180.0)
           (-180.0 180.0)
  end
  begin
     id 13 
     name thorax
     direction 0.00826031 0.999067 -0.0423848   
     length 0.424697   
     axis 0 -0 0   XYZ
    dof rx ry rz
    limits (-180.0 180.0)
           (-180.0 180.0)
           (-180.0 180.0)
  end
  begin
     id 14 
     name lowerneck
     direction -0.0196262 0.994272 -0.105058   
     length 0.355877   
     axis 0 -0 0   XYZ
    dof rx ry rz
    limits (-180.0 180.0)
           (-180.0 180.0)
           (-180.0 180.0)
  end
  begin
     id 15 
     name upperneck
     direction 0.000117372 0.999091 0.0426261   
     length 0.351054   
     axis 0 -0 0   XYZ
    dof rx ry rz
    limits (-180.0 180.0)
           (-180.0 180.0)
           (-180.0 180.0)
  end
  begin
     id 16
     name head
     direction 0.00157618 0.999651 0.0263619  
     length 0.374844  
     axis 0 -0 0   XYZ
    dof rx ry rz
    limits (-180.0 180.0)
           (-180.0 180.0)
           (-180.0 180.0)
  end
  begin
     id 17 
     name lshoulderjoint
     direction 0.981627 -0.190809 0  
     length 0.701763  
     axis 0 -0 -11   XYZ
    dof rx ry rz
    limits (-180.0 180.0)
           (-180.0 180.0)
           (-180.0 180.0)
  end
  begin
     id 18 
     name lhumerus
     direction 0.48481 -0.87462 -1.80676e-026   
     length 0.994704   
     axis -180 5.14477e-009 -151   XYZ
    dof rx ry rz
    limits (-180.0 180.0)
           (-180.0 180.0)
           (-180.0 180.0)
  end
  begin
     id 19
     name lradius
     direction 0.48481 -0.87462 -3.2569e-026   
     length 0.617638   
     axis -180 5.14477e-009 -151   XYZ
    dof rx ry rz
    limits (-180.0 180.0)
           (-180.0 180.0)
           (-180.0 180.0)
  end
  begin
     id 20
     name lwrist
     direction 0.48481 -0.87462 -6.73202e-026   
     length 0.308819   
     axis -180 5.14477e-009 -151   XYZ
    dof rx ry rz
    limits (-180.0 180.0)
           (-180.0 180.0)
           (-180.0 180.0)
  end
  begin
     id 21 
     name lhand
     direction 0.478366 -0.863761 -0.158376   
     length 0.291656   
     axis -180 5.14477e-009 -151   XYZ
    dof rx ry rz
    limits (-180.0 180.0)
           (-180.0 180.0)
           (-180.0 180.0)
  end
  begin
     id 22 
     name rshoulderjoint
     direction -0.981627 -0.190809 0   
     length 0.66654  
     axis 0 -0 11   XYZ 
    dof rx ry rz
    limits (-180.0 180.0)
           (-180.0 180.0)
           (-180.0 180.0)
  end
  begin
     id 23 
     name rhumerus
     direction -0.48481 -0.87462 1.77576e-026  
     length 1.15089   
     axis 180 5.14477e-009 151   XYZ
    dof rx ry rz
    limits (-180.0 180.0)
           (-180.0 180.0)
           (-180.0 180.0)
  end
  begin
     id 24 
     name rradius
     direction -0.48481 -0.87462 3.79421e-026   
     length 0.613887   
     axis 180 5.14477e-009 151   XYZ
    dof rx ry rz
    limits (-180.0 180.0)
           (-180.0 180.0)
           (-180.0 180.0)
  end
  begin
     id 25 
     name rwrist
     direction -0.48481 -0.87462 5.43623e-026   
     length 0.306944   
     axis 180 5.14477e-009 151   XYZ
    dof rx ry rz
    limits (-180.0 180.0)
           (-180.0 180.0)
           (-180.0 180.0)
  end
  begin
     id 26
     name rhand
     direction -0.479273 -0.864638 -0.150661   
     length 0.306429   
     axis 180 5.14477e-009 151   XYZ
    dof rx ry rz
    limits (-180.0 180.0)
           (-180.0 180.0)
           (-180.0 180.0)
  end
:hierarchy
  begin
    root lhipjoint rhipjoint lowerback 
    lhipjoint lfemur
    lfemur ltibia
    ltibia lfoot
    lfoot ltoes
    rhipjoint rfemur
    rfemur rtibia
    rtibia rfoot
    rfoot rtoes
    lowerback upperback
    upperback thorax
    thorax lowerneck lshoulderjoint rshoulderjoint
    lowerneck upperneck
    upperneck head
    lshoulderjoint lhumerus
    lhumerus lradius
    lradius lwrist
    lwrist lhand
    rshoulderjoint rhumerus
    rhumerus rradius
    rradius rwrist
    rwrist rhand
  end

:FULLY-SPECIFIED
:DEGREES
1
root -0.355569 3.63174 -0.371589 88.1974 -73.6609 83.4518
lowerback -18.438 -1.69906 -4.01294
upperback -3.56018 -1.66222 -0.138803
thorax 6.58447 -0.974893 1.72651
lowerneck 11.9772 0.481932 -3.38114
upperneck -2.99999 0.106358 0.100066
head -3.08592 0.0810724 0.624669
rshoulderjoint 4.4641 -5.84709 -48.4648
rhumerus 118.427 -72.5063 -135.267
rradius 39.5892 -7.79236e-014 -3.44891e-014
rwrist -2.91977e-013 1.17571 5.20925e-014
rhand 25.7236 -1.17497 2.03091
lshoulderjoint 7.0901 12.4781 40.9274
lhumerus 132.757 43.257 151.012
lradius 37.9473 -8.90555e-014 -9.17391e-014
lwrist 7.74987e-014 5.60284 -4.99847e-014
lhand 10.6234 -5.21863 21.4039
rfemur -10.4827 0.378049 9.2973
rtibia 4.6118e-014 -5.56597e-015 6.36111e-015
rfoot -5.3918 16.1276 -11.8178
rtoes -1.48293e-013 -1.51871e-013 1.01778e-013
lfemur -9.53037 -11.6113 -17.3633
ltibia 2.8625e-014 3.33958e-014 1.74931e-014
lfoot -5.6659 -5.4943 14.2992
ltoes -1.93417e-013 -4.9895e-014 -1.43125e-014
2
root -0.353082 3.63148 -0.370229 87.8427 -73.7319 83.1292
lowerback -18.3119 -1.71177 -3.96133
upperback -3.5214 -1.69065 -0.133383
thorax 6.55931 -0.986347 1.69853
lowerneck 12.0077 0.476602 -3.37746
upperneck -3.04873 0.100427 0.126074
head -3.10867 0.0778641 0.633229
rshoulderjoint 4.43035 -5.81184 -48.4208
rhumerus 117.978 -72.72 -134.723
rradius 39.5645 4.6118e-014 2.04748e-014
rwrist 1.81735e-013 1.28884 -2.76381e-014
rhand 25.972 -1.28789 2.20135
lshoulderjoint 7.07023 12.4558 40.9008
lhumerus 132.652 43.4206 150.847
lradius 37.9517 6.99722e-014 6.31141e-014
lwrist 3.23595e-014 5.63431 9.90946e-015
lhand 10.6851 -5.24815 21.3986
rfemur -10.4321 0.286203 9.32367
rtibia 1.59028e-015 7.95139e-015 -1.03368e-014
rfoot -5.35607 16.1731 -11.8161
rtoes 1.70955e-014 -1.14301e-014 -2.06736e-014
lfemur -9.50053 -11.6933 -17.3562
ltibia -1.03368e-014 -1.43125e-014 -1.27222e-014
lfoot -5.56788 -5.57849 14.3042
ltoes 3.33958e-014 2.45002e-014 -1.19271e-014
3
root -0.350355 3.63123 -0.368765 87.429 -73.8015 82.7207
lowerback -18.1981 -1.73675 -3.95055
upperback -3.46619 -1.72585 -0.125481
thorax 6.55986 -1.0022 1.6943
lowerneck 12.0122 0.472868 -3.38284
upperneck -3.09454 0.0963008 0.149541
head -3.12548 0.0757788 0.642362
rshoulderjoint 4.43647 -5.82741 -48.3854
rhumerus 117.468 -72.8215 -134.173
rradius 39.6481 1.94014e-013 9.93923e-014
rwrist 6.22863e-013 1.34065 -1.07373e-013
rhand 25.99 -1.33958 2.28773
lshoulderjoint 7.04902 12.4428 40.8511
lhumerus 132.509 43.5706 150.65
lradius 37.9372 -4.29375e-013 -1.46405e-013
lwrist 1.45428e-013 5.67516 2.8515e-013
lhand 10.7776 -5.28718 21.3726
rfemur -10.3855 0.170354 9.32286
rtibia -1.27222e-014 4.17448e-015 0
rfoot -5.30053 16.2095 -11.7974
rtoes 6.20208e-014 1.27918e-013 -2.11507e-013
lfemur -9.47508 -11.7984 -17.3745
ltibia -7.95139e-015 -4.29375e-014 -2.78299e-014
lfoot -5.481 -5.65924 14.3157
ltoes 7.81224e-014 3.58061e-014 6.75868e-014
4
root -0.347551 3.63089 -0.367122 86.9236 -73.8636 82.2586
lowerback -18.0635 -1.76228 -3.90127
upperback -3.42759 -1.77176 -0.106631
thorax 6.5312 -1.0222 1.67826
lowerneck 12.0144 0.461897 -3.40173
upperneck -3.11862 0.0819093 0.193059
head -3.13427 0.067586 0.661078
rshoulderjoint 4.41976 -5.79933 -48.4137
rhumerus 115.879 -73.3096 -132.635
rradius 39.7117 -4.13472e-014 -2.3059e-014
rwrist 1.11654e-013 1.46752 1.42178e-014
rhand 26.0943 -1.42421 2.56326
lshoulderjoint 7.02256 12.4257 40.7907
lhumerus 132.333 43.799 150.398
lradius 37.9389 1.17681e-013 4.90004e-014
lwrist 1.44246e-013 5.74138 -6.87267e-014
lhand 10.9378 -5.45368 21.4095
rfemur -10.3392 0.0390066 9.35755
rtibia 2.38542e-014 3.97569e-016 1.59028e-015
rfoot -5.24623 16.2012 -11.778
rtoes -4.73108e-014 -1.26228e-013 -2.22639e-014
lfemur -9.45708 -11.9187 -17.3536
ltibia 2.46493e-014 1.59028e-015 -7.95139e-016
lfoot -5.38382 -5.74185 14.3166
ltoes -9.12422e-014 2.99668e-014 -5.56597e-015
5
root -0.344822 3.63057 -0.365474 86.3947 -73.9283 81.751
lowerback -17.9477 -1.79129 -3.87228
upperback -3.3875 -1.81609 -0.110521
thorax 6.51386 -1.04198 1.64938
lowerneck 12.0871 0.448042 -3.37458
upperneck -3.17124 0.0672995 0.232538
head -3.16629 0.0591238 0.670686
rshoulderjoint 4.38665 -5.76538 -48.3667
rhumerus 114.539 -73.7136 -131.267
rradius 39.8037 -3.65764e-013 -2.02214e-013
rwrist 4.80559e-013 1.63626 1.41195e-013
rhand 26.1658 -1.54963 2.83445
lshoulderjoint 7.00386 12.4026 40.7694
lhumerus 132.062 44.1985 150.031
lradius 37.9454 3.27597e-013 2.95642e-013
lwrist -1.03905e-014 5.82699 6.15936e-014
lhand 11.1744 -5.46279 21.4352
rfemur -10.2872 -0.103381 9.37278
rtibia 3.10104e-014 2.18663e-015 5.56597e-015
rfoot -5.19173 16.2328 -11.7549
rtoes -1.78906e-013 1.51076e-013 2.8625e-014
lfemur -9.43228 -12.0495 -17.3532
ltibia 3.4191e-014 -7.95139e-015 -2.3059e-014
lfoot -5.27704 -5.83266 14.3108
ltoes -1.81292e-013 3.30976e-014 -7.15625e-015
6
root -0.341735 3.63026 -0.363713 85.8172 -73.9872 81.2039
lowerback -17.806 -1.81999 -3.83248
upperback -3.36053 -1.86431 -0.107903
thorax 6.46841 -1.0631 1.62141
lowerneck 12.1769 0.425078 -3.35898
upperneck -3.22828 0.0376122 0.265336
head -3.20288 0.0436031 0.681245
rshoulderjoint 4.38132 -5.7827 -48.2505
rhumerus 112.609 -74.1678 -129.138
rradius 39.8915 5.24792e-014 4.43041e-014
rwrist -2.02729e-013 1.94902 8.35379e-015
rhand 26.1827 -1.87697 3.17088
lshoulderjoint 6.967 12.3589 40.7235
lhumerus 131.771 44.6394 149.631
lradius 37.9458 -2.54444e-013 -1.93815e-013
lwrist 7.03609e-014 6.02552 -2.79845e-015
lhand 11.4507 -5.63374 21.5092
rfemur -10.2407 -0.25705 9.39354
rtibia 1.11319e-014 -1.19271e-015 7.15625e-015
rfoot -5.1285 16.2229 -11.7405
rtoes -5.76476e-014 1.46107e-014 -2.70347e-014
lfemur -9.41617 -12.1909 -17.3435
ltibia 1.98785e-014 -3.18055e-015 7.95139e-016
lfoot -5.18078 -5.84615 14.3199
ltoes -1.18277e-013 -2.99419e-014 -6.36111e-015
7
root -0.338189 3.6299 -0.361672 85.2573 -74.0319 80.7229
lowerback -17.6656 -1.83247 -3.72183
upperback -3.3236 -1.90335 -0.106033
thorax 6.4316 -1.07842 1.55463
lowerneck 12.213 0.399742 -3.34886
upperneck -3.26761 0.00846745 0.326646
head -3.22316 0.0270813 0.701922
rshoulderjoint 4.31452 -5.70468 -48.1984
rhumerus 110.446 -74.7926 -126.958
rradius 40.0304 -2.05146e-013 -7.62712e-014
rwrist 3.71585e-013 2.12234 1.3094e-013
rhand 26.29 -2.20906 3.52607
lshoulderjoint 6.95013 12.3501 40.6804
lhumerus 131.456 44.9814 149.253
lradius 37.943 2.73528e-013 2.96525e-013
lwrist -1.18797e-013 6.30822 1.46397e-013
lhand 11.7332 -6.05952 21.6676
rfemur -10.223 -0.39346 9.45644
rtibia -1.03368e-014 5.96354e-015 -6.36111e-015
rfoot -5.0265 16.2275 -11.7031
rtoes 3.37934e-014 8.28932e-014 -3.49861e-014
lfemur -9.42792 -12.317 -17.2888
ltibia -5.56597e-015 -1.11319e-014 -3.89618e-014
lfoot -5.07601 -5.97226 14.3271
ltoes 2.26615e-014 6.23438e-014 4.29375e-014
8
root -0.334575 3.62944 -0.359367 84.6309 -74.0766 80.1808
lowerback -17.499 -1.85423 -3.6031
upperback -3.30036 -1.95848 -0.0908277
thorax 6.36681 -1.10121 1.4949
lowerneck 12.2597 0.384816 -3.37907
upperneck -3.29939 -0.0129891 0.396985
head -3.24326 0.0143671 0.73233
rshoulderjoint 4.31531 -5.70584 -48.1979
rhumerus 108.674 -75.1113 -125.314
rradius 40.1707 6.36111e-015 1.54058e-015
rwrist -6.65589e-013 2.23147 1.72825e-014
rhand 26.5157 -2.12225 3.74583
lshoulderjoint 6.93457 12.3596 40.6061
lhumerus 130.971 45.5746 148.614
lradius 37.9399 -6.99722e-014 -7.22458e-014
lwrist -9.28485e-014 6.5845 -2.34122e-014
lhand 12.162 -6.38798 21.7159
rfemur -10.1956 -0.546872 9.52229
rtibia -7.95139e-016 -1.19271e-015 9.54166e-015
rfoot -4.95377 16.2141 -11.6813
rtoes 4.25399e-014 -1.62407e-013 1.11319e-014
lfemur -9.43859 -12.4606 -17.2376
ltibia -4.77083e-015 1.59028e-015 2.54444e-014
lfoot -4.95639 -6.15087 14.3398
ltoes 0 -7.59854e-014 -3.81667e-014
9
root -0.330946 3.62885 -0.35675 84.0171 -74.1207 79.6666
lowerback -17.3457 -1.86268 -3.47604
upperback -3.27929 -1.99628 -0.0858958
thorax 6.305 -1.11552 1.42337
lowerneck 12.3677 0.350653 -3.3152
upperneck -3.3655 -0.0505962 0.428865
head -3.28624 -0.0057403 0.734791
rshoulderjoint 4.34283 -5.77266 -48.0539
rhumerus 105.703 -75.5563 -122.205
rradius 40.3076 6.36111e-015 -7.85199e-015
rwrist 1.0886e-013 2.45487 -2.45352e-014
rhand 26.6115 -2.38506 4.11518
lshoulderjoint 6.907 12.3115 40.6016
lhumerus 130.315 46.5307 147.74
lradius 37.9272 2.8943e-013 1.68023e-013
lwrist 1.2731e-013 6.75187 -1.04891e-013
lhand 12.8133 -6.42021 21.6222
rfemur -10.1742 -0.692764 9.59794
rtibia -3.18055e-014 3.18055e-015 7.95139e-016
rfoot -4.8765 16.2554 -11.6654
rtoes 2.11507e-013 -3.44295e-013 4.13472e-014
lfemur -9.45756 -12.5972 -17.1791
ltibia -4.29375e-014 1.74931e-014 3.81667e-014
lfoot -4.80283 -6.3206 14.3645
ltoes 1.75726e-013 -5.21313e-014 -8.18993e-014
10
root -0.327059 3.62827 -0.354084 83.4311 -74.1683 79.2048
lowerback -17.1893 -1.87627 -3.34307
upperback -3.2416 -2.04199 -0.0576129
thorax 6.26022 -1.13382 1.37158
lowerneck 12.4251 0.324501 -3.28334
upperneck -3.4297 -0.0802119 0.459976
head -3.31916 -0.0213064 0.741985
rshoulderjoint 4.31465 -5.75183 -47.9732
rhumerus 102.875 -76.0339 -119.344
rradius 40.4973 3.32368e-013 1.62506e-013
rwrist 2.86763e-013 2.73471 -1.96374e-013
rhand 26.7238 -2.664 4.4774
lshoulderjoint 6.90445 12.3162 40.5831
lhumerus 129.488 47.5829 146.673
lradius 37.8968 -4.32555e-013 -3.33561e-013
lwrist 1.71519e-013 7.21914 -1.54287e-014
lhand 13.4464 -6.77558 21.4493
rfemur -10.1625 -0.823752 9.69273
rtibia -3.81667e-014 -1.98785e-016 -3.97569e-015
rfoot -4.78514 16.2699 -11.6309
rtoes 1.94014e-013 -8.0309e-014 -2.16278e-013
lfemur -9.47957 -12.7183 -17.1006
ltibia -3.10104e-014 -5.24792e-014 -1.19271e-014
lfoot -4.60933 -6.49597 14.3891
ltoes 1.96399e-013 -1.62258e-014 2.62396e-014
11
root -0.322803 3.62765 -0.351155 82.8703 -74.2224 78.7545
lowerback -16.9894 -1.88206 -3.20903
upperback -3.21483 -2.07919 -0.0294947
thorax 6.17945 -1.14758 1.32251
lowerneck 12.4894 0.2887 -3.28136
upperneck -3.49036 -0.127467 0.494039
head -3.35198 -0.0454038 0.756749
rshoulderjoint 4.31643 -5.76508 -47.9214
rhumerus 99.7284 -76.4537 -116.185
rradius 40.6863 -4.11087e-013 -2.39138e-013
rwrist 3.51822e-013 2.92385 1.52866e-013
rhand 26.8876 -2.77562 4.87739
lshoulderjoint 6.89314 12.3198 40.5354
lhumerus 128.687 48.5061 145.673
lradius 37.8772 3.91208e-013 2.58619e-013
lwrist -2.72683e-014 7.50478 -6.41607e-014
lhand 14.1108 -7.28028 21.282
rfemur -10.1454 -0.950689 9.76985
rtibia 4.92986e-014 -3.97569e-015 -6.36111e-015
rfoot -4.70802 16.2593 -11.6088
rtoes -2.40529e-013 1.62407e-013 1.11319e-014
lfemur -9.50106 -12.8349 -17.0428
ltibia 5.96354e-014 -4.77083e-015 -1.74931e-014
lfoot -4.4071 -6.76613 14.4082
ltoes -2.60408e-013 4.27139e-014 -6.36111e-015
